<?xml version="1.0" encoding="UTF-8"?><svg id="Layer_1" xmlns="http://www.w3.org/2000/svg" xmlns:xlink="http://www.w3.org/1999/xlink" viewBox="0 0 39.88 79.91"><defs><style>.cls-1{clip-path:url(#clippath);}.cls-2{fill:none;}.cls-2,.cls-3{stroke-width:0px;}.cls-3{fill:#231f20;}</style><clipPath id="clippath"><rect class="cls-2" width="39.88" height="79.91"/></clipPath></defs><g class="cls-1"><path class="cls-3" d="M32.51,79.92v-13.26s11.52-3.59,5.76-12.78c-5.76-9.19-13.64-17.33-14.4-21.8-.76-4.48-.46-7.02-.46-7.02h-1.02v-3.56h-1.02v-4.92l1.7-1.02-1.7-.98v-4.09s2.39-1.81,1.82-3.77c-.69-2.34-3.25-3.5-3.25-6.71,0,2.86-2.56,4.38-3.25,6.71-.57,1.96,1.82,3.77,1.82,3.77v4.09l-1.7.98,1.7,1.02v4.92h-1.02v3.56h-1.02s.3,2.54-.46,7.02c-.76,4.47-8.64,12.61-14.4,21.8-5.76,9.19,5.76,12.78,5.76,12.78v13.26h25.14Z"/></g></svg>